# xmcd CD database file
#
# Track frame offsets:
#	150
#	32373
#	75415
#	100349
#	117906
#	175104
#	182013
#
# Disc length: 3242 seconds
#
# Revision: 0
# Processed by: cddbd v1.5.1PL0 Copyright (c) Steve Scherf et al.
# Submitted via: CDex 1.50
#
DISCID=470ca807
DTITLE=Yusef Lateef - World at Peace 1
DYEAR=1995
DGENRE=Jazz
TTITLE0=Ramifications
TTITLE1=Coltrane Remembered
TTITLE2=Africa 35
TTITLE3=Chaos #3
TTITLE4=Beloved
TTITLE5=Like a Secret Argosy
TTITLE6=Masara #2
EXTD=YEAR: 1995
EXTT0=
EXTT1=
EXTT2=
EXTT3=
EXTT4=
EXTT5=
EXTT6=
PLAYORDER=
